<?xml version="1.0" encoding="utf-8"?>
<!-- Generator: Adobe Illustrator 19.0.0, SVG Export Plug-In . SVG Version: 6.00 Build 0)  -->
<svg version="1.1" id="Layer_1" xmlns="http://www.w3.org/2000/svg" xmlns:xlink="http://www.w3.org/1999/xlink" x="0px" y="0px"
	 viewBox="0 0 500 500" style="enable-background:new 0 0 500 500;" xml:space="preserve">
<style type="text/css">
	.st0{fill:url(#XMLID_16_);}
	.st1{opacity:0.7;fill:url(#XMLID_17_);}
	.st2{opacity:0.8;fill:url(#XMLID_18_);}
	.st3{fill:#FFFFFF;}
</style>
<g id="XMLID_10_">
	<g id="XMLID_11_">
		<g id="XMLID_12_">
			
				<linearGradient id="XMLID_16_" gradientUnits="userSpaceOnUse" x1="151.7634" y1="532.4276" x2="553.3568" y2="532.4276" gradientTransform="matrix(0.9096 0.4156 -0.4156 0.9096 131.4687 -391.2113)">
				<stop  offset="0" style="stop-color:#A1DBF7"/>
				<stop  offset="0.1052" style="stop-color:#9BD2F1"/>
				<stop  offset="0.2753" style="stop-color:#8CBDE2"/>
				<stop  offset="0.4892" style="stop-color:#769ECC"/>
				<stop  offset="0.7384" style="stop-color:#5B79B2"/>
				<stop  offset="1" style="stop-color:#3A5499"/>
			</linearGradient>
			<path id="XMLID_15_" class="st0" d="M316.7,72.7L111,118.2C33,135.5,2.9,230.7,56.8,289.7l142.2,155.4
				c54,58.9,151.5,37.4,175.6-38.8l63.5-200.9C462.2,129.2,394.7,55.5,316.7,72.7z"/>
			
				<linearGradient id="XMLID_17_" gradientUnits="userSpaceOnUse" x1="57.8895" y1="452.7993" x2="520.338" y2="452.7993" gradientTransform="matrix(0.9991 -4.270000e-02 4.270000e-02 0.9991 -62.2759 -187.5026)">
				<stop  offset="0" style="stop-color:#A43F97"/>
				<stop  offset="0.2124" style="stop-color:#9D4198"/>
				<stop  offset="0.5558" style="stop-color:#8D459A"/>
				<stop  offset="0.9851" style="stop-color:#704A9E"/>
				<stop  offset="1" style="stop-color:#6F4A9E"/>
			</linearGradient>
			<path id="XMLID_14_" class="st1" d="M246.7,36.5L59.5,190.7c-71,58.5-52.1,172,34.1,204.2L320.7,480
				c86.2,32.3,175-40.8,159.8-131.6l-39.9-239.3C425.5,18.3,317.7-22,246.7,36.5z"/>
			<radialGradient id="XMLID_18_" cx="17.4514" cy="487.7947" r="624.7206" gradientUnits="userSpaceOnUse">
				<stop  offset="0" style="stop-color:#A43F97"/>
				<stop  offset="0.1449" style="stop-color:#964399"/>
				<stop  offset="0.4401" style="stop-color:#704A9E"/>
				<stop  offset="0.4486" style="stop-color:#6F4A9E"/>
				<stop  offset="0.546" style="stop-color:#654D9C"/>
				<stop  offset="0.8359" style="stop-color:#48529A"/>
				<stop  offset="1" style="stop-color:#3A5499"/>
			</radialGradient>
			<path id="XMLID_13_" class="st2" d="M160.8,95.9L55.5,278.4c-40,69.2,10,155.7,89.9,155.7h210.7c79.9,0,129.9-86.5,89.9-155.7
				L340.6,95.9C300.7,26.7,200.8,26.7,160.8,95.9z"/>
		</g>
	</g>
</g>
<g id="XMLID_9_">
	<g id="XMLID_113_">
		<path id="XMLID_124_" class="st3" d="M272.2,271.1c0.1,0.3,0.3,0.6,0.5,0.9L272.2,271.1z"/>
		<g id="XMLID_116_">
			<g id="XMLID_117_">
				<path id="XMLID_118_" class="st3" d="M377.4,294.9L377.4,294.9L377.4,294.9c-0.5-1.2-1.1-2.4-1.8-3.5l-51.3-102.7l0,0
					c-5.7-11.4-17.4-19.2-31-19.2c-19.2,0-34.7,15.6-34.7,34.7c0,5.6,1.4,10.8,3.7,15.5l0,0L313.9,323c-0.1-0.2-0.2-0.5-0.3-0.7
					c0.4,0.9,0.8,1.8,1.3,2.7l0,0c0.5,0.9,1,1.7,1.5,2.5c0.1,0.2,0.3,0.4,0.4,0.6c0.5,0.7,1,1.4,1.6,2.1c0.1,0.1,0.2,0.2,0.2,0.3
					c0.6,0.8,1.3,1.5,2,2.2c0.2,0.2,0.4,0.4,0.5,0.5c0.6,0.6,1.2,1.1,1.8,1.7c0.1,0.1,0.3,0.3,0.4,0.4c0.8,0.6,1.5,1.2,2.4,1.8
					c0.2,0.1,0.4,0.3,0.6,0.4c0.7,0.4,1.4,0.9,2.1,1.3c0.2,0.1,0.4,0.2,0.6,0.3c0.9,0.5,1.8,0.9,2.7,1.3c0.2,0.1,0.4,0.1,0.5,0.2
					c0.8,0.3,1.6,0.6,2.4,0.9c0.2,0.1,0.5,0.2,0.7,0.2c1,0.3,1.9,0.5,2.9,0.8c0.1,0,0.3,0,0.4,0.1c0.9,0.2,1.8,0.3,2.7,0.4
					c0.3,0,0.5,0.1,0.8,0.1c1,0.1,2.1,0.2,3.2,0.2c19.2,0,34.7-15.6,34.7-34.7C380.1,303.7,379.2,299.1,377.4,294.9z M312.3,318.9
					c0.3,0.9,0.6,1.9,1,2.8C312.9,320.8,312.6,319.9,312.3,318.9z M310.7,308.5c0,1.1,0.1,2.1,0.2,3.2
					C310.7,310.6,310.7,309.5,310.7,308.5z M310.9,312.3c0.1,1,0.3,2,0.5,3C311.1,314.3,311,313.3,310.9,312.3z M311.5,315.8
					c0.2,0.9,0.4,1.8,0.7,2.7C311.9,317.6,311.6,316.7,311.5,315.8z"/>
			</g>
		</g>
		<g id="XMLID_114_">
			<path id="XMLID_115_" class="st3" d="M220.1,188.7L220.1,188.7c-5.7-11.4-17.5-19.2-31.1-19.2c-13.6,0-25.3,7.8-31,19.2h0
				c0,0-52.5,104.9-53,106.1l-0.1,0.1h0c-1.9,4.4-2.8,9.2-2.8,14.2c0.3,18.1,15.1,33.2,33.1,34c19.9,0.9,36.3-15,36.3-34.7
				c0-14.7-9.1-27.3-22.1-32.3c-4.9-1.9-7.1-7.5-4.7-12.2l13.8-27.6c1.6-3.1,6-3.1,7.6,0c0,0,44,88,44.4,88.7c0,0,0,0,0,0
				c6.4,11.8,19.5,19.5,34.3,18c16.4-1.7,29.5-15.2,30.9-31.6c0.6-7.3-1.1-14.2-4.4-20L220.1,188.7z"/>
		</g>
	</g>
</g>
</svg>
