<svg xmlns="http://www.w3.org/2000/svg" version="1.1" width="1024" height="572">
<rect x="0" y="0" width="1024" height="572" fill="#917b73" />
<g transform="scale(4.000000) translate(0.5 0.5)">
<polygon fill="#ffffba" fill-opacity="0.501961" points="2,132 -16,-16 171,-1" />
<polygon fill="#06213d" fill-opacity="0.501961" points="-15,138 268,19 264,158" />
<polygon fill="#ffc197" fill-opacity="0.501961" points="173,-16 -16,3 40,121" />
<polygon fill="#8a746e" fill-opacity="0.501961" points="109,19 218,29 165,135" />
<polygon fill="#192233" fill-opacity="0.501961" points="271,148 265,30 192,37" />
<polygon fill="#ffe4ac" fill-opacity="0.501961" points="-16,4 56,-16 6,158" />
<polygon fill="#cb78af" fill-opacity="0.501961" points="249,-16 271,33 91,5" />
<polygon fill="#454146" fill-opacity="0.501961" points="68,119 93,63 181,74" />
<polygon fill="#ffe1aa" fill-opacity="0.501961" points="165,42 142,38 145,80" />
<polygon fill="#ffaf7f" fill-opacity="0.501961" points="7,54 149,-15 69,101" />
<polygon fill="#23222b" fill-opacity="0.501961" points="24,109 79,135 10,125" />
<polygon fill="#3c282e" fill-opacity="0.501961" points="148,19 134,81 123,28" />
<polygon fill="#10161c" fill-opacity="0.501961" points="97,113 72,147 149,124" />
<polygon fill="#9e8882" fill-opacity="0.501961" points="104,115 119,16 130,114" />
<polygon fill="#a09e9d" fill-opacity="0.501961" points="206,47 179,47 177,107" />
<polygon fill="#8392af" fill-opacity="0.501961" points="212,107 179,158 172,134" />
<polygon fill="#ffc4b4" fill-opacity="0.501961" points="170,11 78,38 -16,-16" />
<polygon fill="#ffc09a" fill-opacity="0.501961" points="80,96 -7,118 92,54" />
<polygon fill="#0c1015" fill-opacity="0.501961" points="53,107 81,124 80,96" />
<polygon fill="#e9996b" fill-opacity="0.501961" points="118,65 129,38 21,51" />
<polygon fill="#181e26" fill-opacity="0.501961" points="182,105 259,25 254,65" />
<polygon fill="#7570a9" fill-opacity="0.501961" points="251,-16 264,29 210,32" />
<polygon fill="#535e74" fill-opacity="0.501961" points="248,103 233,61 189,126" />
<polygon fill="#afb2bf" fill-opacity="0.501961" points="50,134 44,148 74,141" />
<polygon fill="#545769" fill-opacity="0.501961" points="178,40 220,65 233,31" />
<polygon fill="#fff0bd" fill-opacity="0.501961" points="-10,56 59,78 -15,96" />
<polygon fill="#ecb68c" fill-opacity="0.501961" points="134,52 159,29 166,68" />
<polygon fill="#434249" fill-opacity="0.501961" points="128,131 128,64 177,78" />
<polygon fill="#6c7b8e" fill-opacity="0.501961" points="195,76 152,153 160,95" />
<polygon fill="#704335" fill-opacity="0.501961" points="116,30 112,53 127,25" />
<polygon fill="#ffc590" fill-opacity="0.501961" points="48,115 -16,97 62,70" />
<polygon fill="#e48b89" fill-opacity="0.501961" points="154,-16 104,19 200,15" />
<polygon fill="#212732" fill-opacity="0.501961" points="193,113 160,143 206,62" />
<polygon fill="#878c9f" fill-opacity="0.501961" points="84,119 81,131 58,129" />
<polygon fill="#040f1a" fill-opacity="0.501961" points="223,158 229,137 267,134" />
<polygon fill="#ed9f62" fill-opacity="0.501961" points="93,54 54,75 28,33" />
<polygon fill="#393740" fill-opacity="0.501961" points="115,81 94,63 91,93" />
<polygon fill="#a29891" fill-opacity="0.501961" points="141,79 149,57 170,63" />
<polygon fill="#fde8c4" fill-opacity="0.501961" points="6,51 47,6 -6,3" />
<polygon fill="#2d2d39" fill-opacity="0.501961" points="16,117 6,137 30,111" />
<polygon fill="#714f47" fill-opacity="0.501961" points="164,20 178,65 149,22" />
<polygon fill="#12181d" fill-opacity="0.501961" points="125,122 107,153 102,115" />
<polygon fill="#e5b682" fill-opacity="0.501961" points="26,93 -16,106 -7,158" />
<polygon fill="#f3bf80" fill-opacity="0.501961" points="59,17 110,37 -16,64" />
<polygon fill="#b77b7b" fill-opacity="0.501961" points="170,39 216,35 176,-12" />
<polygon fill="#615f67" fill-opacity="0.501961" points="129,79 105,78 144,151" />
<polygon fill="#0c1017" fill-opacity="0.501961" points="176,124 169,146 139,156" />
<polygon fill="#3b4252" fill-opacity="0.501961" points="243,64 162,114 199,117" />
<polygon fill="#1c283a" fill-opacity="0.501961" points="222,158 219,109 207,133" />
<polygon fill="#88a2be" fill-opacity="0.501961" points="170,129 159,137 167,113" />
</g>
</svg>